<?xml version="1.0" encoding="UTF-8"?>
<svg id="RID3501" xmlns="http://www.w3.org/2000/svg" version="1.1" viewBox="0 0 566.9 566.9">
  <!-- Generator: Adobe Illustrator 29.8.2, SVG Export Plug-In . SVG Version: 2.1.1 Build 3)  -->
  <defs>
    <style>
      .st0 {
        fill: #d20260;
      }

      .st1 {
        fill: #f8b627;
      }

      .st2 {
        display: none;
      }

      .st3 {
        fill: none;
        stroke: #231916;
        stroke-miterlimit: 10;
      }
    </style>
  </defs>
  <g id="_3501_左胸" class="st2">
    <path class="st3" d="M267,202.9v136.6c0,5-4.1,9.1-9.1,9.1h0c-5,0-9.1-4.1-9.1-9.1v-126c0-2.9-2.4-5.3-5.3-5.3h0c-2.9,0-5.3-2.4-5.3-5.4s.6-2.8,1.6-3.8l5.3-5.3c2.4-2.4,5.7-3.8,9.1-3.8h0c7.1,0,12.9,5.8,12.9,12.9h-.1Z"/>
    <path class="st3" d="M386.9,283c-5,0-9.1,4.1-9.1,9.1v4.9c0,66.4-53.8,120.2-120.2,120.3-66.4,0-120.2-53.8-120.3-120.2,0-66.4,53.8-120.2,120.2-120.3,36.9,0,71.8,16.9,94.6,45.9,1.7,2.2,4.4,3.5,7.2,3.5h0c5,0,9.1-4.1,9.1-9.2s-.7-4-2-5.6c-3.4-4.3-7-8.4-10.9-12.3-54.2-54.2-142.6-53.9-196.4.8-53,53.9-52.6,141.2.8,194.7,53.9,54,141.5,54.2,195.5.2,27.3-27.2,42-64.7,40.5-103.2-.2-4.9-4.2-8.7-9.1-8.7h0Z"/>
    <path class="st3" d="M438.2,258h-82.2c-4.7,0-8.5,3.8-8.5,8.5s.1,1.7.4,2.4l.2.8c15.1,49.8-13.1,102.5-63,117.5-49.8,15.1-102.5-13.1-117.5-63-9.2-30.4-2.4-63.4,18-87.8,3-3.6,2.8-9-.5-12.3h0c-3.6-3.6-9.3-3.6-12.9,0-.2.2-.4.4-.5.6-39.9,47.7-33.6,118.6,14.1,158.5s118.6,33.6,158.5-14.1c19.5-23.3,28.7-53.4,25.6-83.6-.5-4.7,2.9-8.8,7.6-9.3h17.5c4.7,0,8.5,3.8,8.5,8.5v141.3c0,5,4.1,9.1,9.1,9.1h0c5,0,9.1-4.1,9.1-9.1h0v-149.8h16.7c5,0,9.1-4.1,9.1-9.1h0c0-5-4.1-9.1-9.1-9.1h-.2Z"/>
    <path class="st3" d="M257.9,383.5c-47.8,0-86.6-38.7-86.7-86.5,0-19.5,6.6-38.5,18.7-53.8,3.2-3.9,8.9-4.5,12.8-1.3.3.2.5.4.7.7h0c3.3,3.3,3.6,8.5.7,12.1-21.4,27.2-19.1,66.2,5.4,90.7,25.9,25.8,70.9,25.8,96.7,0s26.7-70,0-96.8l-1-1.1c-3.3-3.3-3.3-8.7,0-12,1.6-1.6,3.7-2.5,6-2.5h68.6c4.7,0,8.5-3.8,8.5-8.5s-.9-4.4-2.5-6l-73.1-73.1c-3.6-3.6-3.6-9.3,0-12.9h0c3.6-3.6,9.3-3.6,12.9,0h0l104.3,104.2c3.3,3.3,3.3,8.7,0,12-1.6,1.6-3.8,2.5-6,2.5h-78.4c-4.7,0-8.5,3.8-8.5,8.5s.2,2.2.7,3.3c18.7,44-1.8,94.8-45.8,113.6-10.7,4.6-22.3,6.9-34,6.9h0Z"/>
  </g>
  <g id="_x33_501">
    <path class="st1" d="M267.8,81c.4.4,2.8,5.6,3.2,6.6,3.3,7.7,5,16.5,5,24.9l13.8,1.4c2.4-7.9,6-15.7,11.1-22.2s4.4-5.4,5.3-5.8,12.6,2.6,13.7,3.6c4,3.5,2.5,27.4.7,33.1,26.1,9.7,48.9,26.6,68.6,46.3s9.6,10.4,10.1,14.9c1,9.3-7.8,15.6-16.3,12s-11.5-12.4-15.1-16.1c-64.2-65.3-171.4-58.4-227.3,13.5-55.1,70.8-36,174.6,40,221.3,96,59,221.1-4.2,230.2-116.1.5-6.6-.2-14.3.5-20.6,1.4-12.6,21.4-12.5,22.6.5,1.7,19.5-2.6,44.3-8.6,62.9s-6.4,15.6-6.3,16.8,6.4,5.1,7.7,6.2c2.9,2.5,14.4,14.4,14.3,17.8s-6.2,12-7,12.2c-8.1.3-15.9-1.6-23.4-4.3s-7.1-3.4-7.7-3.4c-1.6,0-6.2,8.4-8.1,9.6v1.9c5.8,6.3,10.8,13.9,13.6,22s2.2,4.8.6,7.1-7.5,7.7-8.3,8c-2.8,1.2-10.9-2.7-13.8-4.2-5.5-2.8-10.4-6.8-15.2-10.7-1.2-.2-8.4,6.6-10.3,7.3-.9,1.1,1.6,4.6,2.2,6,1.8,4.5,3.5,9.5,4.4,14.3s1.6,9.9.9,11.6-10.2,6.9-11.6,7.1c-2.5.4-9.9-5.7-11.9-7.6-4.6-4.2-8.8-9.4-11.8-14.8-.8-.5-11,4.7-12.9,5,2.1,10.9,3,22.2-.4,33-.5.7-12.4,3.8-13.7,3.7s-3.7-3.5-4.6-4.6c-5.6-6.7-9.8-15.2-12-23.7l-12.6,1.5c-1.2.4-1.1,6.3-1.3,7.8-1,6.1-2.5,12.3-5,18s-2.4,5.9-3.8,6.2c-4.4,1.1-9.6.1-14.1,0-4.3-8.1-7.2-16.5-8.2-25.6s.7-5.5-1-6.2l-13.4-1.7c-1.7,6.7-4.8,13.6-8.7,19.3s-6.1,8.1-7.6,8.7-11.8-2.4-13.1-3.2c-1.9-1.1-3.1-11.6-3.2-14.1-.3-6.1.7-12.3,1.9-18.3l-.8-1.2-11.7-4.3c-3,5.6-7.7,11.4-12.5,15.6s-8.8,7.4-11.6,6.9-11-6.1-11.3-6.9c-.3-11.1,3.3-21.7,8-31.5-3.3-1.8-7.5-6.7-10.5-8.2s-.6-.3-.9,0c-5.2,5-11.6,9.6-18.2,12.5s-8.4,3.4-9.7,3-9.2-8.2-9.7-9.5,1.1-6.2,1.9-8.1c1.9-4.7,5.2-10.2,8.2-14.4s5.3-5.4,4.9-6.9-6.9-7.8-7.9-10.4c-8.2,4.2-18,7.7-27.3,8.2-5,.2-4.7-.6-7.2-4.4s-4.6-7.1-3.7-9.4,6-8.5,7.8-10.5c4-4.3,9.2-8.4,14.4-11.3l-5.1-12.5c-3.2.1-6.3,1.2-9.5,1.5s-10.2.4-14.3,0-7.6-1.2-8.7-1.9-4.3-12.1-4.1-13.6,8.8-7.9,10.6-9.1c5.4-3.5,11.5-6.1,17.7-8l-1.4-13.9c-8.7-.2-17.3-1.7-25.3-5.2s-6.6-2.9-6.9-4.2c-.9-4.7-.4-9.4,0-14.1,9.8-5.2,20.8-8.5,32.1-8.2l1.4-13.9c-6.4-1.6-12.9-4.6-18.4-8.2s-9.5-6.7-9.8-8.4,2.7-12.6,3.5-13.5,11.6-2.4,13.5-2.5c6.7-.3,13.3.9,19.9,1.9l4.8-12.4c-7.7-4.3-15-10.9-20-18.1s-3.2-4.1-2.8-5.9,5.8-10.8,6.5-11.3c3.2-1.9,17.4,1.8,21.4,3.1s9.7,4.4,10.5,4.3.8-.4,1.2-.7c.4-.3,6.7-8.8,6.9-9.4.7-1.7-1.7-2.9-2.6-4.1-3-3.7-14.5-21.6-12.7-25.6s4.3-4.9,5-5.5,4.3-3.7,4.8-3.9c4-1.1,18.9,7.9,22.5,10.6s5.3,5.4,6.9,4.9l9.4-7.4c-3.2-6.7-6.4-13.7-7.5-21.2s-1.1-9.8-.4-11.1,10.9-6.7,12-6.7,4.1,2.2,5.2,2.9c7.4,5.2,13.5,12.5,18.3,20.1l12.7-5.6c-1.6-9.9-2.9-19.6-.4-29.5s.4-2.8,1.6-3.7,10.9-3.5,12.4-3.4,4.9,4.3,6.2,5.8c5.2,6.6,8.7,14.3,11.3,22.3,1.3.9,11.6-1.7,13.9-1.2,0-8,1.6-16.6,4.6-24s3.4-7.2,3.7-7.6c1-.9,14.1-1,15.1,0h0Z"/>
    <path class="st0" d="M466,451c-2,11.9-21.3,12.1-23-1.5v-180.3c-.3-4.9-4.6-8.8-9.4-9.3s-18.4-.6-23.5,0-9.2,5.4-9.4,10.3,1.3,14,1,21.1c-4.8,118.3-144.5,179.4-234.6,101.7-55.8-48.3-66.2-139.4-17.2-196.2,9.9-11.5,24.3-4.8,21.1,9.6-7.5,10.5-14.6,20-19.8,32-31.5,72.6,15.3,155.1,93.4,165.3,78.1,10.2,145.4-59,132.4-137.7-.9-5.5-4.9-16.5-4-21s5.3-7.9,9.6-8.1h105.9c8.5,1.7,12.9,10.8,7.8,18.2s-5.1,4.8-7.2,4.8h-23.3v191.2h.2Z"/>
    <path class="st0" d="M334.5,75.7c2.4-.4,5.5-.3,7.6.8,45.7,43.8,89.8,89.6,135,134.1,5.4,6.1,1.8,16.6-6.5,17.5h-100.8c-5.9.4-10.4,5.4-10.3,11.3,15.1,36.4,12.5,77.5-10.6,109.8-34.6,48.3-102.1,60.2-151.2,26.1-48.1-33.4-61.4-100.4-28.8-149.5,4.9-7.4,12.4-17.4,22-9.1,10.4,8.8-1.5,18.9-6.1,27-33.4,59.8,12.4,131.3,80.4,127.4s105.1-83.2,62.8-138.1-7.1-9.2-9.8-12.7c-1.5-1.9-1.9-4.4-1.6-6.2.6-3.7,3.1-7,6.9-8.4,30.5-1.7,61.3-.3,91.9-.7,6.8-1,10.6-8.4,8-14.7s-8-9.2-10.2-11.4c-27.2-28.6-56.4-55.6-84.1-83.7-6.1-5.8-3.1-18.1,5.3-19.5h.1Z"/>
    <path class="st1" d="M252,151.5c9-1.3,16.7,2.9,19.1,11.9,1.6,58.6.2,117.6.7,176.3-1.4,14.2-20.4,15.3-23,1.4v-161.1c-1-3.4-2.4-4.9-5.7-5.8s-2.3,0-3.4-.4c-4.1-1.2-5.6-6.6-3.3-10.1s11.3-11.5,15.7-12.1h-.1Z"/>
  </g>
</svg>